<?xml version="1.0" encoding="UTF-8" standalone="no"?><svg width="100%" height="100%" viewBox="0 0 540 540" version="1.1" xmlns="http://www.w3.org/2000/svg" xmlns:xlink="http://www.w3.org/1999/xlink" xml:space="preserve" xmlns:serif="http://www.serif.com/" style="fill-rule:evenodd;clip-rule:evenodd;stroke-linejoin:round;stroke-miterlimit:2;"><g><path d="M270,30l207.846,120l0,240l-207.846,120l-207.846,-120l-0,-240l207.846,-120Z" style="fill:#ffda75;"/><path d="M270,70l173.205,100l0,200l-173.205,100l-173.205,-100l-0,-200l173.205,-100Z" style="fill:#ffc075;"/><clipPath id="_clip1"><path d="M270,70l173.205,100l0,200l-173.205,100l-173.205,-100l-0,-200l173.205,-100Z"/></clipPath><g clip-path="url(#_clip1)"><g><circle cx="270" cy="270" r="30" style="fill:#0006ff;fill-opacity:0.1;"/><circle cx="270" cy="270" r="60" style="fill:#0006ff;fill-opacity:0.1;"/><circle cx="270" cy="270" r="90" style="fill:#0006ff;fill-opacity:0.1;"/><circle cx="270" cy="270" r="120" style="fill:#0006ff;fill-opacity:0.1;"/><circle cx="270" cy="270" r="150" style="fill:#0006ff;fill-opacity:0.1;"/><circle cx="270" cy="270" r="180" style="fill:#0006ff;fill-opacity:0.1;"/></g></g></g></svg>